<?xml version="1.0" encoding="UTF-8"?>
<svg width="880px" height="181px" viewBox="0 0 880 181" version="1.1" xmlns="http://www.w3.org/2000/svg" xmlns:xlink="http://www.w3.org/1999/xlink">
    <title>CCSM-CDS Logo Teal</title>
    <g id="Page-1" stroke="none" stroke-width="1" fill="none" fill-rule="evenodd">
        <g id="Title" transform="translate(-146, -230)" fill-rule="nonzero">
            <g id="CCSM-CDS-Logo-Teal" transform="translate(146, 230)">
                <g id="Group-3-Copy-2" transform="translate(191, 29)" fill="#171717">
                    <path d="M11.7355916,93.4900474 C17.0216908,93.4900474 20.139134,89.8080954 20.5965848,85.8896878 L18.2923877,85.8896878 C17.6993959,88.9298316 15.4968545,91.5139539 11.718649,91.5139539 C6.65280391,91.5139539 4.0775248,88.1360162 4.0775248,80.9578988 C4.0775248,73.7628915 6.65280391,70.3511744 11.718649,70.3511744 C15.4968545,70.3511744 17.6993959,72.9015174 18.2923877,75.9416613 L20.5965848,75.9416613 C20.1730193,71.9556948 16.7167236,68.3919706 11.7355916,68.3919706 C5.2635086,68.3919706 1.72249983,72.8170689 1.72249983,80.9410091 C1.72249983,89.0480594 5.28045122,93.4900474 11.7355916,93.4900474 Z M32.3378208,93.4900474 C35.6077475,93.4900474 38.6913054,91.7672992 39.3520679,88.3049131 L37.2681248,88.3049131 C36.8276166,90.4499036 34.8622719,91.7166301 32.3208781,91.7166301 C28.3224185,91.7166301 26.5265002,88.5920379 26.5265002,84.9100857 L39.5214941,84.9100857 L39.5214941,83.8798148 C39.5214941,78.5426733 36.8276166,75.3505222 32.1175666,75.3505222 C27.17032,75.3505222 24.3409014,78.9142464 24.3409014,84.5891817 C24.3409014,90.2303376 27.5938856,93.4900474 32.3378208,93.4900474 Z M37.4206084,83.2717859 L26.5603854,83.2717859 C26.5265002,80.2992009 28.2377054,77.1070497 32.100624,77.1070497 C35.7094032,77.1070497 37.4206084,79.7756205 37.4206084,83.2717859 Z M46.4001966,93.1522537 L46.4001966,81.5659276 C46.4001966,78.3231074 49.1110171,77.3772849 51.2627305,77.4617329 C51.7032388,77.4617329 52.4995423,77.529292 52.9061652,77.7150786 L52.9061652,75.637647 C52.5334275,75.4349706 51.8726651,75.3505222 51.2627305,75.3505222 C49.3482138,75.3505222 47.1795578,76.1950066 46.2815987,78.6271217 L46.2815987,75.688316 L44.2823687,75.688316 L44.2823687,93.1522537 L46.4001966,93.1522537 Z M64.4102059,93.1522537 L70.560379,75.688316 L68.5442066,75.688316 L63.3428205,90.6019107 L62.9700828,90.6019107 L57.8534098,75.688316 L55.7694668,75.688316 L61.9535251,93.1522537 L64.4102059,93.1522537 Z M76.7105494,71.3138868 L76.7105494,68.7635438 L74.4063523,68.7635438 L74.4063523,71.3138868 L76.7105494,71.3138868 Z M76.6088937,93.1522537 L76.6088937,75.688316 L74.5418933,75.688316 L74.5418933,93.1522537 L76.6088937,93.1522537 Z M89.1294927,93.4900474 C92.5180179,93.4900474 95.3813216,91.615292 95.9743135,88.1697956 L93.9750837,88.1697956 C93.6023459,90.2303376 91.7725423,91.7504095 89.163378,91.7504095 C85.317402,91.7504095 83.4028852,88.8453832 83.4028852,84.4709539 C83.4028852,79.5053855 85.7579102,77.1746085 89.1294927,77.1746085 C91.7555997,77.1746085 93.5854033,78.6440114 93.9581411,80.7552225 L95.9912562,80.7552225 C95.3813216,77.2759467 92.5519031,75.3505222 89.1294927,75.3505222 C83.9450493,75.3505222 81.3019997,79.0324743 81.3019997,84.4709539 C81.3019997,90.5005726 84.4702707,93.4900474 89.1294927,93.4900474 Z M105.208042,93.4900474 C107.749435,93.4900474 110.104459,92.5442248 111.561526,89.7236469 L111.697067,93.1522537 L113.543814,93.1522537 L113.543814,81.0254575 C113.543814,77.2421672 111.137961,75.3505222 107.037845,75.3505222 C102.869959,75.3505222 100.565762,77.2928364 100.379393,80.4680977 L102.378623,80.4680977 C102.785246,78.1373208 104.598107,77.0901601 106.936189,77.0732704 C110.03669,77.0732704 111.493756,78.6777908 111.493756,81.1099059 L111.493756,82.6468676 L107.851091,82.7650954 C101.955057,82.9339922 99.5153193,84.6736301 99.5153193,88.5751482 C99.5153193,91.6490714 101.768689,93.4900474 105.208042,93.4900474 Z M105.733263,91.8010785 C103.276582,91.8010785 101.616205,90.534352 101.616205,88.3893615 C101.616205,85.5518939 103.530722,84.3865055 108.444083,84.302057 L111.493756,84.2344983 L111.493756,87.4773183 C111.493756,89.6391985 108.410198,91.8010785 105.733263,91.8010785 Z M122.692828,93.3211505 C123.031681,93.3211505 123.556902,93.2535918 123.99741,93.1184743 L123.99741,91.6997404 L122.997796,91.6828507 C121.896525,91.6490714 121.015508,90.804587 121.015508,88.7609347 L121.015508,68.0541769 L118.931565,68.0541769 L118.931565,88.8791625 C118.931565,91.3112777 119.727869,93.3211505 122.692828,93.3211505 Z M146.378615,93.4900474 C151.664715,93.4900474 154.782158,89.8080954 155.239609,85.8896878 L152.935412,85.8896878 C152.34242,88.9298316 150.139879,91.5139539 146.361673,91.5139539 C141.295829,91.5139539 138.720549,88.1360162 138.720549,80.9578988 C138.720549,73.7628915 141.295829,70.3511744 146.361673,70.3511744 C150.139879,70.3511744 152.34242,72.9015174 152.935412,75.9416613 L155.239609,75.9416613 C154.816043,71.9556948 151.359748,68.3919706 146.378615,68.3919706 C139.906534,68.3919706 136.365524,72.8170689 136.365524,80.9410091 C136.365524,89.0480594 139.923476,93.4900474 146.378615,93.4900474 Z M164.693591,93.4900474 C167.234984,93.4900474 169.590007,92.5442248 171.047076,89.7236469 L171.182617,93.1522537 L173.029363,93.1522537 L173.029363,81.0254575 C173.029363,77.2421672 170.62351,75.3505222 166.523394,75.3505222 C162.355509,75.3505222 160.051311,77.2928364 159.864942,80.4680977 L161.864173,80.4680977 C162.270796,78.1373208 164.083656,77.0901601 166.421738,77.0732704 C169.522238,77.0732704 170.979305,78.6777908 170.979305,81.1099059 L170.979305,82.6468676 L167.33664,82.7650954 C161.440607,82.9339922 159.000868,84.6736301 159.000868,88.5751482 C159.000868,91.6490714 161.254237,93.4900474 164.693591,93.4900474 Z M165.218812,91.8010785 C162.762132,91.8010785 161.101753,90.534352 161.101753,88.3893615 C161.101753,85.5518939 163.016271,84.3865055 167.929632,84.302057 L170.979305,84.2344983 L170.979305,87.4773183 C170.979305,89.6391985 167.895747,91.8010785 165.218812,91.8010785 Z M180.534942,93.1522537 L180.534942,81.211244 C180.534942,78.5088939 182.974681,77.2421672 185.753271,77.2421672 C188.447148,77.2421672 190.175297,78.7453495 190.175297,81.920611 L190.175297,93.1522537 L192.276182,93.1522537 L192.276182,81.7854935 C192.276182,77.3603952 189.531477,75.3843015 186.142951,75.3843015 C183.330476,75.3843015 181.314304,76.6848076 180.433288,78.2555486 L180.433288,75.688316 L178.417114,75.688316 L178.417114,93.1522537 L180.534942,93.1522537 Z M204.390156,93.4900474 C207.778682,93.4900474 210.641986,91.615292 211.234977,88.1697956 L209.235748,88.1697956 C208.86301,90.2303376 207.033206,91.7504095 204.424042,91.7504095 C200.578066,91.7504095 198.663548,88.8453832 198.663548,84.4709539 C198.663548,79.5053855 201.018574,77.1746085 204.390156,77.1746085 C207.016263,77.1746085 208.846068,78.6440114 209.218805,80.7552225 L211.25192,80.7552225 C210.641986,77.2759467 207.812568,75.3505222 204.390156,75.3505222 C199.205714,75.3505222 196.562663,79.0324743 196.562663,84.4709539 C196.562663,90.5005726 199.730935,93.4900474 204.390156,93.4900474 Z M222.925386,93.4900474 C226.195314,93.4900474 229.278871,91.7672992 229.939633,88.3049131 L227.855691,88.3049131 C227.415182,90.4499036 225.449837,91.7166301 222.908443,91.7166301 C218.909984,91.7166301 217.114065,88.5920379 217.114065,84.9100857 L230.109059,84.9100857 L230.109059,83.8798148 C230.109059,78.5426733 227.415182,75.3505222 222.705132,75.3505222 C217.757886,75.3505222 214.928466,78.9142464 214.928466,84.5891817 C214.928466,90.2303376 218.181451,93.4900474 222.925386,93.4900474 Z M228.008174,83.2717859 L217.14795,83.2717859 C217.114065,80.2992009 218.825271,77.1070497 222.688189,77.1070497 C226.296969,77.1070497 228.008174,79.7756205 228.008174,83.2717859 Z M236.987761,93.1522537 L236.987761,81.5659276 C236.987761,78.3231074 239.698583,77.3772849 241.850296,77.4617329 C242.290804,77.4617329 243.087107,77.529292 243.49373,77.7150786 L243.49373,75.637647 C243.120992,75.4349706 242.46023,75.3505222 241.850296,75.3505222 C239.935779,75.3505222 237.767124,76.1950066 236.869165,78.6271217 L236.869165,75.688316 L234.869934,75.688316 L234.869934,93.1522537 L236.987761,93.1522537 Z M264.756722,93.4900474 C270.500272,93.4900474 273.58383,90.585021 273.58383,87.0381865 C273.58383,84.3189467 272.363961,81.4476996 268.111363,80.4174287 L263.181058,79.1675918 C259.673935,78.2724383 258.521837,77.1408291 258.521837,75.1816253 C258.521837,71.9050258 261.77482,70.3680641 264.604238,70.3680641 C267.687797,70.3680641 270.5511,71.6010114 270.923838,75.3167428 L273.160264,75.3167428 C273.160264,71.8543567 270.263076,68.42575 264.621181,68.42575 C259.673935,68.42575 256.285409,71.3307765 256.285409,75.3336325 C256.302352,78.4244455 258.369353,80.2992009 261.944246,81.160575 L267.06092,82.3935222 C269.975051,83.1028891 271.381289,84.6567404 271.381289,87.0888556 C271.381289,89.7912057 268.619641,91.615292 264.756722,91.615292 C261.419025,91.615292 258.487951,90.0276613 257.810246,86.9537381 L255.539934,86.9537381 C256.217639,91.2268292 260.249984,93.4900474 264.756722,93.4900474 Z M285.528378,93.4900474 C288.916904,93.4900474 291.780207,91.615292 292.373199,88.1697956 L290.373969,88.1697956 C290.001231,90.2303376 288.171427,91.7504095 285.562263,91.7504095 C281.716287,91.7504095 279.80177,88.8453832 279.80177,84.4709539 C279.80177,79.5053855 282.156796,77.1746085 285.528378,77.1746085 C288.154484,77.1746085 289.984289,78.6440114 290.357027,80.7552225 L292.390141,80.7552225 C291.780207,77.2759467 288.950789,75.3505222 285.528378,75.3505222 C280.343935,75.3505222 277.700884,79.0324743 277.700884,84.4709539 C277.700884,90.5005726 280.869156,93.4900474 285.528378,93.4900474 Z M298.963876,93.1522537 L298.963876,81.5659276 C298.963876,78.3231074 301.674697,77.3772849 303.82641,77.4617329 C304.266919,77.4617329 305.063222,77.529292 305.469845,77.7150786 L305.469845,75.637647 C305.097107,75.4349706 304.436345,75.3505222 303.82641,75.3505222 C301.911894,75.3505222 299.743238,76.1950066 298.845279,78.6271217 L298.845279,75.688316 L296.846048,75.688316 L296.846048,93.1522537 L298.963876,93.1522537 Z M316.347009,93.4900474 C319.616936,93.4900474 322.700494,91.7672992 323.361256,88.3049131 L321.277313,88.3049131 C320.836805,90.4499036 318.87146,91.7166301 316.330066,91.7166301 C312.331607,91.7166301 310.535688,88.5920379 310.535688,84.9100857 L323.530682,84.9100857 L323.530682,83.8798148 C323.530682,78.5426733 320.836805,75.3505222 316.126755,75.3505222 C311.179509,75.3505222 308.350089,78.9142464 308.350089,84.5891817 C308.350089,90.2303376 311.603074,93.4900474 316.347009,93.4900474 Z M321.429797,83.2717859 L310.569573,83.2717859 C310.535688,80.2992009 312.246894,77.1070497 316.109812,77.1070497 C319.718592,77.1070497 321.429797,79.7756205 321.429797,83.2717859 Z M335.356632,93.4900474 C338.626559,93.4900474 341.710117,91.7672992 342.370879,88.3049131 L340.286936,88.3049131 C339.846428,90.4499036 337.881082,91.7166301 335.339689,91.7166301 C331.34123,91.7166301 329.545311,88.5920379 329.545311,84.9100857 L342.540305,84.9100857 L342.540305,83.8798148 C342.540305,78.5426733 339.846428,75.3505222 335.136378,75.3505222 C330.189132,75.3505222 327.359712,78.9142464 327.359712,84.5891817 C327.359712,90.2303376 330.612697,93.4900474 335.356632,93.4900474 Z M340.43942,83.2717859 L329.579196,83.2717859 C329.545311,80.2992009 331.256517,77.1070497 335.119435,77.1070497 C338.728215,77.1070497 340.43942,79.7756205 340.43942,83.2717859 Z M349.419007,93.1522537 L349.419007,81.211244 C349.419007,78.5088939 351.858746,77.2421672 354.637337,77.2421672 C357.331214,77.2421672 359.059363,78.7453495 359.059363,81.920611 L359.059363,93.1522537 L361.160248,93.1522537 L361.160248,81.7854935 C361.160248,77.3603952 358.415543,75.3843015 355.027017,75.3843015 C352.214541,75.3843015 350.198369,76.6848076 349.317353,78.2555486 L349.317353,75.688316 L347.301179,75.688316 L347.301179,93.1522537 L349.419007,93.1522537 Z M368.852197,71.3138868 L368.852197,68.7635438 L366.547999,68.7635438 L366.547999,71.3138868 L368.852197,71.3138868 Z M368.750541,93.1522537 L368.750541,75.688316 L366.68354,75.688316 L366.68354,93.1522537 L368.750541,93.1522537 Z M376.950769,93.1522537 L376.950769,81.211244 C376.950769,78.5088939 379.390509,77.2421672 382.169099,77.2421672 C384.862976,77.2421672 386.591125,78.7453495 386.591125,81.920611 L386.591125,93.1522537 L388.69201,93.1522537 L388.69201,81.7854935 C388.69201,77.3603952 385.947305,75.3843015 382.558779,75.3843015 C379.746304,75.3843015 377.730132,76.6848076 376.849115,78.2555486 L376.849115,75.688316 L374.832942,75.688316 L374.832942,93.1522537 L376.950769,93.1522537 Z M401.094009,98.9285271 C406.668133,98.9285271 409.311182,96.8004263 409.311182,93.6758341 C409.311182,90.8721457 407.261125,89.3014048 403.940369,89.0987284 C402.313877,88.9973903 401.009295,88.9298316 400.043566,88.8791625 C397.400517,88.693376 396.553386,88.4569204 396.553386,87.7475535 C396.553386,87.1057453 397.451345,86.3963783 400.484074,86.3288196 C400.670443,86.3457093 400.941525,86.3457093 401.144836,86.3457093 C405.837944,86.3457093 408.091313,84.0993807 408.091313,80.9578988 C408.091313,80.079635 407.820231,79.0831434 407.396666,78.289328 L410.497166,77.6644095 L410.497166,75.2998531 C409.836403,75.5531985 406.990043,76.769256 406.413994,77.0057116 C405.075526,75.958551 403.618459,75.4180809 401.398976,75.4180809 C396.671984,75.4180809 394.164474,77.5968508 394.164474,80.9747884 C394.164474,83.0184407 395.367401,84.7074095 397.298861,85.7207908 C395.435171,86.1937021 394.469442,87.0888556 394.469442,88.1022368 C394.469442,89.284515 395.452114,89.7067573 396.078992,90.09522 C395.604599,90.4667932 392.826007,91.5815126 392.826007,94.1656349 C392.826007,97.3240067 396.011222,98.9285271 401.094009,98.9285271 Z M401.195664,84.7749682 C398.044336,84.7749682 396.282304,83.4069036 396.282304,80.9410091 C396.282304,78.289328 398.247648,76.9550426 401.195664,76.9550426 C404.092853,76.9550426 406.041256,78.289328 406.041256,80.9410091 C406.041256,83.5082417 404.092853,84.7749682 401.195664,84.7749682 Z M401.517574,97.3408964 C397.044722,97.3408964 394.960778,96.0235006 394.960778,93.9291793 C394.960778,92.0037549 397.09555,90.6188004 398.264591,90.7032488 L403.703173,91.0410427 C406.058199,91.1930499 407.193354,92.3077692 407.193354,93.8785103 C407.193354,96.226177 405.024699,97.3408964 401.517574,97.3408964 Z M428.371631,93.4900474 C430.913025,93.4900474 433.268048,92.5442248 434.725117,89.7236469 L434.860657,93.1522537 L436.707403,93.1522537 L436.707403,81.0254575 C436.707403,77.2421672 434.301551,75.3505222 430.201435,75.3505222 C426.03355,75.3505222 423.729351,77.2928364 423.542983,80.4680977 L425.542213,80.4680977 C425.948836,78.1373208 427.761697,77.0901601 430.099779,77.0732704 C433.200279,77.0732704 434.657346,78.6777908 434.657346,81.1099059 L434.657346,82.6468676 L431.014681,82.7650954 C425.118648,82.9339922 422.678909,84.6736301 422.678909,88.5751482 C422.678909,91.6490714 424.932278,93.4900474 428.371631,93.4900474 Z M428.896853,91.8010785 C426.440172,91.8010785 424.779794,90.534352 424.779794,88.3893615 C424.779794,85.5518939 426.694312,84.3865055 431.607672,84.302057 L434.657346,84.2344983 L434.657346,87.4773183 C434.657346,89.6391985 431.573787,91.8010785 428.896853,91.8010785 Z M444.212983,93.1522537 L444.212983,81.211244 C444.212983,78.5088939 446.652722,77.2421672 449.431312,77.2421672 C452.125189,77.2421672 453.853338,78.7453495 453.853338,81.920611 L453.853338,93.1522537 L455.954223,93.1522537 L455.954223,81.7854935 C455.954223,77.3603952 453.209518,75.3843015 449.820992,75.3843015 C447.008517,75.3843015 444.992345,76.6848076 444.111328,78.2555486 L444.111328,75.688316 L442.095155,75.688316 L442.095155,93.1522537 L444.212983,93.1522537 Z M467.593804,93.4900474 C472.066657,93.4900474 473.371239,90.6188004 473.710092,89.5716398 L473.913403,93.1522537 L475.641551,93.1522537 L475.641551,68.0541769 L473.50678,68.0541769 L473.50678,78.6777908 C473.083215,77.7488579 471.304238,75.3505222 467.492148,75.3505222 C462.612671,75.3505222 460.240704,78.9311361 460.240704,84.3527261 C460.240704,90.4667932 463.120951,93.4900474 467.593804,93.4900474 Z M467.864886,91.7335198 C464.222222,91.7335198 462.426302,88.8116038 462.426302,84.1669396 C462.426302,79.3364887 464.66273,77.1408291 467.949599,77.1408291 C471.998887,77.1408291 473.43901,79.8093999 473.50678,84.1669396 C473.50678,89.4703017 471.998887,91.7335198 467.864886,91.7335198 Z M492.787484,93.1522537 L492.787484,73.036635 L500.496379,93.1522537 L502.885289,93.1522537 L510.678897,72.8170689 L510.678897,93.1522537 L512.915323,93.1522537 L512.915323,68.7297645 L510.204503,68.7297645 L501.699305,90.4667932 L493.295763,68.7297645 L490.551056,68.7297645 L490.551056,93.1522537 L492.787484,93.1522537 Z M523.89414,93.4900474 C526.435533,93.4900474 528.790556,92.5442248 530.247625,89.7236469 L530.383166,93.1522537 L532.229911,93.1522537 L532.229911,81.0254575 C532.229911,77.2421672 529.824059,75.3505222 525.723943,75.3505222 C521.556058,75.3505222 519.251859,77.2928364 519.065491,80.4680977 L521.064722,80.4680977 C521.471344,78.1373208 523.284205,77.0901601 525.622287,77.0732704 C528.722787,77.0732704 530.179854,78.6777908 530.179854,81.1099059 L530.179854,82.6468676 L526.537189,82.7650954 C520.641156,82.9339922 518.201417,84.6736301 518.201417,88.5751482 C518.201417,91.6490714 520.454786,93.4900474 523.89414,93.4900474 Z M524.419361,91.8010785 C521.962681,91.8010785 520.302302,90.534352 520.302302,88.3893615 C520.302302,85.5518939 522.21682,84.3865055 527.130181,84.302057 L530.179854,84.2344983 L530.179854,87.4773183 C530.179854,89.6391985 527.096295,91.8010785 524.419361,91.8010785 Z M539.735491,93.1522537 L539.735491,81.211244 C539.735491,78.5088939 542.17523,77.2421672 544.95382,77.2421672 C547.647697,77.2421672 549.375846,78.7453495 549.375846,81.920611 L549.375846,93.1522537 L551.476731,93.1522537 L551.476731,81.7854935 C551.476731,77.3603952 548.732026,75.3843015 545.3435,75.3843015 C542.531025,75.3843015 540.514853,76.6848076 539.633836,78.2555486 L539.633836,75.688316 L537.617663,75.688316 L537.617663,93.1522537 L539.735491,93.1522537 Z M561.608418,93.4900474 C564.149812,93.4900474 566.504835,92.5442248 567.961903,89.7236469 L568.097444,93.1522537 L569.94419,93.1522537 L569.94419,81.0254575 C569.94419,77.2421672 567.538338,75.3505222 563.438221,75.3505222 C559.270336,75.3505222 556.966138,77.2928364 556.779769,80.4680977 L558.779,80.4680977 C559.185623,78.1373208 560.998484,77.0901601 563.336566,77.0732704 C566.437066,77.0732704 567.894133,78.6777908 567.894133,81.1099059 L567.894133,82.6468676 L564.251467,82.7650954 C558.355435,82.9339922 555.915695,84.6736301 555.915695,88.5751482 C555.915695,91.6490714 558.169064,93.4900474 561.608418,93.4900474 Z M562.13364,91.8010785 C559.676959,91.8010785 558.016581,90.534352 558.016581,88.3893615 C558.016581,85.5518939 559.931099,84.3865055 564.844459,84.302057 L567.894133,84.2344983 L567.894133,87.4773183 C567.894133,89.6391985 564.810574,91.8010785 562.13364,91.8010785 Z M582.346189,98.9285271 C587.920313,98.9285271 590.563362,96.8004263 590.563362,93.6758341 C590.563362,90.8721457 588.513305,89.3014048 585.192549,89.0987284 C583.566058,88.9973903 582.261476,88.9298316 581.295746,88.8791625 C578.652697,88.693376 577.805566,88.4569204 577.805566,87.7475535 C577.805566,87.1057453 578.703525,86.3963783 581.736254,86.3288196 C581.922623,86.3457093 582.193705,86.3457093 582.397017,86.3457093 C587.090124,86.3457093 589.343493,84.0993807 589.343493,80.9578988 C589.343493,80.079635 589.072411,79.0831434 588.648846,78.289328 L591.749346,77.6644095 L591.749346,75.2998531 C591.088584,75.5531985 588.242223,76.769256 587.666174,77.0057116 C586.327706,75.958551 584.870639,75.4180809 582.651156,75.4180809 C577.924164,75.4180809 575.416654,77.5968508 575.416654,80.9747884 C575.416654,83.0184407 576.619581,84.7074095 578.551041,85.7207908 C576.687351,86.1937021 575.721622,87.0888556 575.721622,88.1022368 C575.721622,89.284515 576.704294,89.7067573 577.331172,90.09522 C576.856779,90.4667932 574.078187,91.5815126 574.078187,94.1656349 C574.078187,97.3240067 577.263402,98.9285271 582.346189,98.9285271 Z M582.447844,84.7749682 C579.296517,84.7749682 577.534484,83.4069036 577.534484,80.9410091 C577.534484,78.289328 579.499828,76.9550426 582.447844,76.9550426 C585.345033,76.9550426 587.293436,78.289328 587.293436,80.9410091 C587.293436,83.5082417 585.345033,84.7749682 582.447844,84.7749682 Z M582.769754,97.3408964 C578.296902,97.3408964 576.212958,96.0235006 576.212958,93.9291793 C576.212958,92.0037549 578.34773,90.6188004 579.516771,90.7032488 L584.955353,91.0410427 C587.310379,91.1930499 588.445534,92.3077692 588.445534,93.8785103 C588.445534,96.226177 586.276879,97.3408964 582.769754,97.3408964 Z M602.745107,93.4900474 C606.015034,93.4900474 609.098592,91.7672992 609.759354,88.3049131 L607.675411,88.3049131 C607.234903,90.4499036 605.269557,91.7166301 602.728164,91.7166301 C598.729705,91.7166301 596.933786,88.5920379 596.933786,84.9100857 L609.92878,84.9100857 L609.92878,83.8798148 C609.92878,78.5426733 607.234903,75.3505222 602.524853,75.3505222 C597.577607,75.3505222 594.748187,78.9142464 594.748187,84.5891817 C594.748187,90.2303376 598.001172,93.4900474 602.745107,93.4900474 Z M607.827895,83.2717859 L596.967671,83.2717859 C596.933786,80.2992009 598.644992,77.1070497 602.50791,77.1070497 C606.11669,77.1070497 607.827895,79.7756205 607.827895,83.2717859 Z M616.807482,93.1522537 L616.807482,81.211244 C616.807482,78.3568868 619.264164,77.2252775 621.280336,77.2252775 C623.110139,77.2252775 625.278794,78.3906661 625.278794,80.7552225 L625.278794,93.1522537 L627.396622,93.1522537 L627.396622,81.211244 C627.396622,78.1035413 630.039674,77.2252775 631.88642,77.2252775 C633.970364,77.2252775 635.918765,78.1711002 635.918765,81.920611 L635.918765,93.1522537 L638.01965,93.1522537 L638.01965,81.7854935 C638.01965,76.3807931 634.732782,75.3505222 632.326928,75.3505222 C629.971903,75.3505222 628.057387,76.4652417 626.973059,78.238659 C626.14287,76.3470138 623.838672,75.3505222 621.856385,75.3505222 C619.145566,75.3505222 617.586844,76.7016973 616.705828,78.2555486 L616.705828,75.688316 L614.689654,75.688316 L614.689654,93.1522537 L616.807482,93.1522537 Z M650.472475,93.4900474 C653.742403,93.4900474 656.82596,91.7672992 657.486723,88.3049131 L655.40278,88.3049131 C654.962272,90.4499036 652.996926,91.7166301 650.455533,91.7166301 C646.457074,91.7166301 644.661154,88.5920379 644.661154,84.9100857 L657.656149,84.9100857 L657.656149,83.8798148 C657.656149,78.5426733 654.962272,75.3505222 650.252221,75.3505222 C645.304975,75.3505222 642.475556,78.9142464 642.475556,84.5891817 C642.475556,90.2303376 645.728541,93.4900474 650.472475,93.4900474 Z M655.555264,83.2717859 L644.69504,83.2717859 C644.661154,80.2992009 646.372361,77.1070497 650.235279,77.1070497 C653.844059,77.1070497 655.555264,79.7756205 655.555264,83.2717859 Z M664.534851,93.1522537 L664.534851,81.211244 C664.534851,78.5088939 666.97459,77.2421672 669.75318,77.2421672 C672.447057,77.2421672 674.175206,78.7453495 674.175206,81.920611 L674.175206,93.1522537 L676.276092,93.1522537 L676.276092,81.7854935 C676.276092,77.3603952 673.531387,75.3843015 670.142861,75.3843015 C667.330385,75.3843015 665.314213,76.6848076 664.433197,78.2555486 L664.433197,75.688316 L662.417023,75.688316 L662.417023,93.1522537 L664.534851,93.1522537 Z M686.661918,93.186033 C687.695418,93.186033 688.559492,93.1184743 689,92.9664671 L689,91.4126158 L687.32268,91.4126158 C685.357336,91.4126158 684.866,91.2437189 684.866,89.0480594 L684.866,77.3266158 L688.847516,77.3266158 L688.847516,75.688316 L684.866,75.688316 L684.866,70.705858 L683.256451,70.705858 L682.782057,75.688316 L679.90181,75.688316 L679.90181,77.3266158 L682.748172,77.3266158 L682.748172,89.0987284 C682.748172,91.9024168 683.578361,93.186033 686.661918,93.186033 Z M11.7355916,132.899314 C17.0216908,132.899314 20.139134,129.217362 20.5965848,125.298954 L18.2923877,125.298954 C17.6993959,128.339098 15.4968545,130.92322 11.718649,130.92322 C6.65280391,130.92322 4.0775248,127.545282 4.0775248,120.367165 C4.0775248,113.172158 6.65280391,109.760441 11.718649,109.760441 C15.4968545,109.760441 17.6993959,112.310784 18.2923877,115.350928 L20.5965848,115.350928 C20.1730193,111.364961 16.7167236,107.801237 11.7355916,107.801237 C5.2635086,107.801237 1.72249983,112.226335 1.72249983,120.350275 C1.72249983,128.457326 5.28045122,132.899314 11.7355916,132.899314 Z M29.1526072,132.730417 C29.4914596,132.730417 30.0166811,132.662858 30.4571893,132.52774 L30.4571893,131.109007 L29.4575744,131.092117 C28.3563037,131.058338 27.4752872,130.213854 27.4752872,128.1702 L27.4752872,107.463443 L25.3913442,107.463443 L25.3913442,128.288429 C25.3913442,130.720544 26.1876476,132.730417 29.1526072,132.730417 Z M37.3020085,110.723153 L37.3020085,108.17281 L34.9978114,108.17281 L34.9978114,110.723153 L37.3020085,110.723153 Z M37.2003528,132.56152 L37.2003528,115.097582 L35.1333523,115.097582 L35.1333523,132.56152 L37.2003528,132.56152 Z M45.4005818,132.56152 L45.4005818,120.62051 C45.4005818,117.91816 47.8403204,116.651433 50.618911,116.651433 C53.3127884,116.651433 55.0409363,118.154616 55.0409363,121.329877 L55.0409363,132.56152 L57.1418218,132.56152 L57.1418218,121.19476 C57.1418218,116.769661 54.3971164,114.793568 51.0085913,114.793568 C48.1961155,114.793568 46.1799431,116.094074 45.2989265,117.664815 L45.2989265,115.097582 L43.282754,115.097582 L43.282754,132.56152 L45.4005818,132.56152 Z M64.8337708,110.723153 L64.8337708,108.17281 L62.5295736,108.17281 L62.5295736,110.723153 L64.8337708,110.723153 Z M64.732115,132.56152 L64.732115,115.097582 L62.6651146,115.097582 L62.6651146,132.56152 L64.732115,132.56152 Z M77.2527141,132.899314 C80.6412392,132.899314 83.5045429,131.024558 84.0975349,127.579061 L82.0983051,127.579061 C81.7255672,129.639604 79.8957637,131.159676 77.2865993,131.159676 C73.4406233,131.159676 71.5261065,128.254649 71.5261065,123.88022 C71.5261065,118.914652 73.8811315,116.583875 77.2527141,116.583875 C79.878821,116.583875 81.7086246,118.053278 82.0813625,120.164489 L84.1144775,120.164489 C83.5045429,116.685213 80.6751245,114.759788 77.2527141,114.759788 C72.0682706,114.759788 69.425221,118.441741 69.425221,123.88022 C69.425221,129.909839 72.5934921,132.899314 77.2527141,132.899314 Z M93.3312629,132.899314 C95.8726568,132.899314 98.22768,131.953491 99.6847475,129.132914 L99.8202885,132.56152 L101.667035,132.56152 L101.667035,120.434724 C101.667035,116.651433 99.261182,114.759788 95.1610665,114.759788 C90.9931806,114.759788 88.6889834,116.702103 88.5026146,119.877364 L90.5018445,119.877364 C90.9084674,117.546587 92.7213284,116.499426 95.0594108,116.482537 C98.1599112,116.482537 99.616977,118.087057 99.616977,120.519172 L99.616977,122.056134 L95.9743125,122.174362 C90.0782788,122.343258 87.6385407,124.082896 87.6385407,127.984414 C87.6385407,131.058338 89.8919099,132.899314 93.3312629,132.899314 Z M93.8564843,131.210345 C91.3998037,131.210345 89.7394263,129.943619 89.7394263,127.798627 C89.7394263,124.96116 91.653943,123.795772 96.5673045,123.711323 L99.616977,123.643764 L99.616977,126.886584 C99.616977,129.048465 96.5334192,131.210345 93.8564843,131.210345 Z M110.81605,132.730417 C111.154902,132.730417 111.680124,132.662858 112.120632,132.52774 L112.120632,131.109007 L111.121017,131.092117 C110.019746,131.058338 109.13873,130.213854 109.13873,128.1702 L109.13873,107.463443 L107.054787,107.463443 L107.054787,128.288429 C107.054787,130.720544 107.85109,132.730417 110.81605,132.730417 Z M130.418665,132.56152 C139.381314,132.56152 143.583084,128.575554 143.583084,120.181378 C143.583084,112.226335 139.87265,108.240369 130.825288,108.17281 C129.042629,108.158123 126.875638,108.143437 126.229264,108.139855 L126.082876,108.139031 C126.066716,108.139031 126.054833,108.139031 126.047467,108.139031 L126.047467,132.56152 L130.418665,132.56152 Z M130.367837,130.602316 L128.283894,130.602316 L128.283894,110.098234 L130.537263,110.098234 C137.399026,110.098234 141.346658,112.462791 141.346658,120.282717 C141.346658,127.849296 137.483739,130.602316 130.367837,130.602316 Z M155.442919,132.899314 C158.712846,132.899314 161.796404,131.176566 162.457166,127.714179 L160.373223,127.714179 C159.932715,129.85917 157.96737,131.125897 155.425976,131.125897 C151.427517,131.125897 149.631598,128.001303 149.631598,124.319352 L162.626592,124.319352 L162.626592,123.289081 C162.626592,117.951939 159.932715,114.759788 155.222665,114.759788 C150.275419,114.759788 147.445999,118.323513 147.445999,123.998448 C147.445999,129.639604 150.698984,132.899314 155.442919,132.899314 Z M160.525707,122.681052 L149.665483,122.681052 C149.631598,119.708467 151.342804,116.516316 155.205722,116.516316 C158.814502,116.516316 160.525707,119.184887 160.525707,122.681052 Z M174.113689,132.899314 C177.502215,132.899314 180.365518,131.024558 180.95851,127.579061 L178.959281,127.579061 C178.586543,129.639604 176.756738,131.159676 174.147574,131.159676 C170.301599,131.159676 168.387081,128.254649 168.387081,123.88022 C168.387081,118.914652 170.742107,116.583875 174.113689,116.583875 C176.739796,116.583875 178.5696,118.053278 178.942338,120.164489 L180.975453,120.164489 C180.365518,116.685213 177.5361,114.759788 174.113689,114.759788 C168.929247,114.759788 166.286196,118.441741 166.286196,123.88022 C166.286196,129.909839 169.454468,132.899314 174.113689,132.899314 Z M187.735558,110.723153 L187.735558,108.17281 L185.43136,108.17281 L185.43136,110.723153 L187.735558,110.723153 Z M187.633902,132.56152 L187.633902,115.097582 L185.566901,115.097582 L185.566901,132.56152 L187.633902,132.56152 Z M199.324312,132.899314 C203.526084,132.899314 205.711682,130.94011 205.711682,127.866186 C205.711682,126.075879 204.796781,124.184234 201.950419,123.424198 L198.070558,122.377038 C196.105214,121.887237 195.020886,121.16098 195.020886,119.708467 C195.020886,117.512808 196.732091,116.482537 199.273484,116.482537 C201.713222,116.482537 203.068632,117.698594 203.305829,119.55646 L205.322002,119.55646 C205.169518,116.364309 202.780607,114.759788 199.273484,114.759788 C195.037829,114.759788 192.98777,116.803441 192.98777,119.792915 C192.98777,122.24192 194.682032,123.508647 197.358968,124.201124 L201.289656,125.231395 C202.899206,125.653637 203.69551,126.515011 203.69551,127.984414 C203.69551,130.146295 201.950419,131.159676 199.324312,131.159676 C196.596548,131.159676 194.851458,129.85917 194.394007,127.714179 L192.360893,127.714179 C192.801401,131.277904 195.647763,132.899314 199.324312,132.899314 Z M212.522615,110.723153 L212.522615,108.17281 L210.218417,108.17281 L210.218417,110.723153 L212.522615,110.723153 Z M212.42096,132.56152 L212.42096,115.097582 L210.353958,115.097582 L210.353958,132.56152 L212.42096,132.56152 Z M224.89073,132.899314 C230.041289,132.899314 232.599625,129.268031 232.599625,123.89711 C232.599625,117.833712 229.53301,114.759788 224.89073,114.759788 C219.72323,114.759788 217.114065,118.407961 217.114065,123.89711 C217.114065,129.89295 220.197624,132.899314 224.89073,132.899314 Z M224.89073,131.125897 C220.993927,131.125897 219.248835,128.102641 219.248835,123.846441 C219.248835,119.03288 221.40055,116.550095 224.89073,116.550095 C228.736707,116.550095 230.464854,119.57335 230.464854,123.846441 C230.464854,128.626223 228.330084,131.125897 224.89073,131.125897 Z M239.291958,132.56152 L239.291958,120.62051 C239.291958,117.91816 241.731697,116.651433 244.510287,116.651433 C247.204165,116.651433 248.932313,118.154616 248.932313,121.329877 L248.932313,132.56152 L251.033199,132.56152 L251.033199,121.19476 C251.033199,116.769661 248.288494,114.793568 244.899968,114.793568 C242.087492,114.793568 240.07132,116.094074 239.190304,117.664815 L239.190304,115.097582 L237.17413,115.097582 L237.17413,132.56152 L239.291958,132.56152 Z M273.46523,132.899314 C279.208781,132.899314 282.292338,129.994288 282.292338,126.447452 C282.292338,123.728213 281.072469,120.856966 276.819871,119.826695 L271.889566,118.576858 C268.382443,117.681705 267.230345,116.550095 267.230345,114.590892 C267.230345,111.314292 270.483328,109.77733 273.312746,109.77733 C276.396305,109.77733 279.259609,111.010278 279.632346,114.726009 L281.868772,114.726009 C281.868772,111.263623 278.971584,107.835016 273.329689,107.835016 C268.382443,107.835016 264.993917,110.740043 264.993917,114.742899 C265.01086,117.833712 267.077861,119.708467 270.652755,120.569841 L275.769428,121.802788 C278.683559,122.512155 280.089797,124.066007 280.089797,126.498121 C280.089797,129.200472 277.32815,131.024558 273.46523,131.024558 C270.127533,131.024558 267.19646,129.436928 266.518755,126.363004 L264.248442,126.363004 C264.926147,130.636096 268.958492,132.899314 273.46523,132.899314 Z M293.847205,132.899314 C296.574968,132.933093 298.506428,131.649477 299.133305,129.301811 L299.336617,132.56152 L301.115592,132.56152 L301.115592,115.097582 L299.014707,115.097582 L299.014707,126.447452 C299.014707,129.588935 297.049361,131.109007 294.101345,131.109007 C290.780591,131.109007 289.204927,129.33559 289.204927,126.683908 L289.204927,115.097582 L287.10404,115.097582 L287.10404,126.819025 C287.10404,130.872551 289.967345,132.848645 293.847205,132.899314 Z M309.231107,138 L309.231107,129.099134 C309.857984,130.500978 311.416705,132.899314 315.059369,132.899314 C319.921904,132.899314 322.48024,129.33559 322.48024,123.542426 C322.48024,117.563477 319.515281,114.759788 315.177968,114.759788 C311.501419,114.759788 309.874927,117.107455 309.24805,118.441741 L309.180279,115.097582 L307.096335,115.097582 L307.096335,138 L309.231107,138 Z M314.80523,131.125897 C311.145623,131.125897 309.197222,127.916855 309.197222,123.660654 C309.197222,119.370673 311.145623,116.550095 314.80523,116.550095 C318.515666,116.550095 320.345469,119.353784 320.345469,123.660654 C320.345469,128.761341 318.109043,131.125897 314.80523,131.125897 Z M329.189517,138 L329.189517,129.099134 C329.816394,130.500978 331.375115,132.899314 335.017779,132.899314 C339.880313,132.899314 342.438649,129.33559 342.438649,123.542426 C342.438649,117.563477 339.47369,114.759788 335.136378,114.759788 C331.459828,114.759788 329.833337,117.107455 329.206459,118.441741 L329.138689,115.097582 L327.054745,115.097582 L327.054745,138 L329.189517,138 Z M334.76364,131.125897 C331.104033,131.125897 329.155632,127.916855 329.155632,123.660654 C329.155632,119.370673 331.104033,116.550095 334.76364,116.550095 C338.474076,116.550095 340.303879,119.353784 340.303879,123.660654 C340.303879,128.761341 338.067453,131.125897 334.76364,131.125897 Z M353.68855,132.899314 C358.839108,132.899314 361.397444,129.268031 361.397444,123.89711 C361.397444,117.833712 358.33083,114.759788 353.68855,114.759788 C348.52105,114.759788 345.911884,118.407961 345.911884,123.89711 C345.911884,129.89295 348.995443,132.899314 353.68855,132.899314 Z M353.68855,131.125897 C349.791746,131.125897 348.046655,128.102641 348.046655,123.846441 C348.046655,119.03288 350.198369,116.550095 353.68855,116.550095 C357.534526,116.550095 359.262674,119.57335 359.262674,123.846441 C359.262674,128.626223 357.127903,131.125897 353.68855,131.125897 Z M368.089778,132.56152 L368.089778,120.975194 C368.089778,117.732374 370.800599,116.786551 372.952312,116.870999 C373.39282,116.870999 374.189123,116.938558 374.595746,117.124345 L374.595746,115.046913 C374.223009,114.844237 373.562246,114.759788 372.952312,114.759788 C371.037796,114.759788 368.86914,115.604273 367.971181,118.036388 L367.971181,115.097582 L365.97195,115.097582 L365.97195,132.56152 L368.089778,132.56152 Z M383.914189,132.595299 C384.947689,132.595299 385.811763,132.52774 386.252271,132.375733 L386.252271,130.821882 L384.574951,130.821882 C382.609607,130.821882 382.118271,130.652985 382.118271,128.457326 L382.118271,116.735882 L386.099787,116.735882 L386.099787,115.097582 L382.118271,115.097582 L382.118271,110.115124 L380.508722,110.115124 L380.034328,115.097582 L377.154081,115.097582 L377.154081,116.735882 L380.000443,116.735882 L380.000443,128.507995 C380.000443,131.311683 380.830632,132.595299 383.914189,132.595299 Z" id="CervicalCancerScreeningandManagementClinicalDecisionSupport"></path>
                    <path d="M22.8386594,50.1961536 C37.5448586,50.1961536 42.1871381,41.6837507 43.4747776,31.9552903 L31.3777428,31.9552903 C30.5644968,36.7857411 27.5487095,40.8730457 22.4659217,40.8730457 C16.5360027,40.8730457 12.7069673,36.2790505 12.7069673,24.7265037 C12.7069673,13.3428538 16.5360027,9.32310795 22.4659217,9.32310795 C27.5487095,9.32310795 30.5644968,12.5659281 31.3777428,17.396379 L43.4747776,17.396379 C42.4243348,7.33012478 34.1902186,0 22.8386594,0 C8.77628012,0 0,9.45822544 0,24.5576068 C0,39.6907676 8.91182113,50.1961536 22.8386594,50.1961536 Z M72.4127741,50.1961536 C87.1189732,50.1961536 91.7612528,41.6837507 93.0488923,31.9552903 L80.9518575,31.9552903 C80.1386115,36.7857411 77.1228242,40.8730457 72.0400364,40.8730457 C66.1101174,40.8730457 62.281082,36.2790505 62.281082,24.7265037 C62.281082,13.3428538 66.1101174,9.32310795 72.0400364,9.32310795 C77.1228242,9.32310795 80.1386115,12.5659281 80.9518575,17.396379 L93.0488923,17.396379 C91.9984495,7.33012478 83.7643333,0 72.4127741,0 C58.3503948,0 49.5741148,9.45822544 49.5741148,24.5576068 C49.5741148,39.6907676 58.4859358,50.1961536 72.4127741,50.1961536 Z M120.360397,50.1961536 C132.288005,50.1961536 140.759318,44.0483071 140.759318,35.9750361 C140.759318,31.0094677 139.641105,22.7672999 126.696939,20.4027435 L118.733905,18.9164509 C114.023855,17.9706283 112.736215,16.5181152 112.736215,13.9508826 C112.736215,11.3160913 115.175953,9.05287298 120.360397,9.05287298 C125.172103,9.05287298 128.391201,10.7080624 128.86559,15.1669401 L140.352695,15.1669401 C140.183269,6.51941973 133.169022,0.0675587421 120.1232,0.0675587421 C109.246034,0.0675587421 100.537525,5.8100528 100.63918,15.335837 C100.774721,23.2739904 105.586427,27.9355445 113.041183,29.2191607 L121.038102,30.7392327 C125.409299,31.5499377 129.204447,32.6646571 129.204447,35.9750361 C129.204447,39.7921057 125.002676,41.2783981 120.292626,41.2783981 C115.379265,41.2783981 111.889084,39.0489594 111.008067,35.0967723 L99.2159999,35.0967723 C100.164787,45.2643646 110.432018,50.1961536 120.360397,50.1961536 Z M160.277215,49.5205661 L160.277215,13.2415157 L170.951069,49.5205661 L179.557923,49.5205661 L190.231777,13.1401776 L190.231777,49.5205661 L201.820534,49.5205661 L201.820534,0.675587561 L184.911793,0.675587561 L175.254497,32.9686716 L165.698856,0.675587561 L148.68846,0.675587561 L148.68846,49.5205661 L160.277215,49.5205661 Z M229.945282,36.2790505 L229.945282,28.0368826 L210.90177,28.070662 L210.90177,36.2790505 L229.945282,36.2790505 Z M259.865954,50.1961536 C274.572154,50.1961536 279.214432,41.6837507 280.502072,31.9552903 L268.405038,31.9552903 C267.591792,36.7857411 264.576005,40.8730457 259.493217,40.8730457 C253.563297,40.8730457 249.734261,36.2790505 249.734261,24.7265037 C249.734261,13.3428538 253.563297,9.32310795 259.493217,9.32310795 C264.576005,9.32310795 267.591792,12.5659281 268.405038,17.396379 L280.502072,17.396379 C279.451629,7.33012478 271.217513,0 259.865954,0 C245.803574,0 237.027294,9.45822544 237.027294,24.5576068 C237.027294,39.6907676 245.939115,50.1961536 259.865954,50.1961536 Z M304.492822,49.5205661 C321.977611,49.5205661 330.076186,39.6232087 330.076186,24.8954005 C330.076186,10.6742831 322.485891,1.24983701 304.730018,0.743146303 C303.306838,0.709366932 301.172068,0.690600662 298.913051,0.680591975 L298.004209,0.677040637 C297.091527,0.673926883 296.171495,0.67208084 295.281703,0.671102224 L291.608632,0.671102224 C291.489551,0.671102224 291.372875,0.671102224 291.258779,0.671102224 L290.606563,0.67243665 C290.503484,0.672584997 290.403335,0.672735034 290.306288,0.672885212 L289.521325,0.674186421 C289.444457,0.67431985 289.371214,0.674447648 289.301771,0.674568128 L288.566755,0.675587561 L288.566755,0.675587561 L288.566755,49.5205661 L304.492822,49.5205661 Z M304.831674,40.366355 L300.15551,40.366355 L300.15551,9.82979866 L304.899445,9.82979866 C312.896364,9.82979866 318.046923,14.5589113 318.046923,24.760283 C318.046923,36.2114918 311.507069,40.366355 304.831674,40.366355 Z M356.811643,50.1961536 C368.739251,50.1961536 377.210563,44.0483071 377.210563,35.9750361 C377.210563,31.0094677 376.09235,22.7672999 363.148185,20.4027435 L355.185151,18.9164509 C350.4751,17.9706283 349.187461,16.5181152 349.187461,13.9508826 C349.187461,11.3160913 351.627199,9.05287298 356.811643,9.05287298 C361.623348,9.05287298 364.842447,10.7080624 365.316835,15.1669401 L376.80394,15.1669401 C376.634514,6.51941973 369.620267,0.0675587421 356.574446,0.0675587421 C345.697281,0.0675587421 336.988771,5.8100528 337.090427,15.335837 C337.225968,23.2739904 342.037673,27.9355445 349.492428,29.2191607 L357.489348,30.7392327 C361.860544,31.5499377 365.655693,32.6646571 365.655693,35.9750361 C365.655693,39.7921057 361.453921,41.2783981 356.743872,41.2783981 C351.83051,41.2783981 348.34033,39.0489594 347.459313,35.0967723 L335.667245,35.0967723 C336.616032,45.2643646 346.883264,50.1961536 356.811643,50.1961536 Z" id="CCSM-CDS"></path>
                </g>
                <g id="Group-2">
                    <path d="M46.7164696,0 C53.5014166,5.33349005 59.8593584,10.618789 65.7902949,15.8558969 C58.9646095,22.0988815 52.740862,28.277191 47.1131625,34.3891302 C43.6730534,32.3911482 40.1063237,30.4127286 36.4149164,28.453784 C39.3253721,19.3575365 42.7588036,9.87256552 46.7164696,0 Z" id="Path" fill="#119682"></path>
                    <path d="M93.2835305,0 C97.2414016,9.87307707 100.674984,19.3585195 103.584277,28.4563272 C90.9263167,35.1716274 79.7356318,42.1171288 69.9985638,49.2802507 C64.484479,45.221674 58.5008701,41.2329595 52.0484179,37.3161663 C63.3657054,25.1508167 77.111709,12.7122951 93.2835305,0 Z" id="Path" fill="#40CAB6"></path>
                    <path d="M2.98842425,18.8131637 C27.9951114,29.50885 48.7782411,40.8423907 65.3378139,52.8137854 C50.2264664,64.6149905 38.9800306,76.9912343 31.5450257,89.8926163 C20.1487242,109.667753 17.0671479,126.951144 18.8968296,141.099619 C19.2825379,144.082207 19.8856655,146.932659 20.6800745,149.64616 L20.1840546,148.901109 C18.9619224,147.040633 17.7591314,145.08737 16.5782829,143.038336 C0.833645118,115.717871 -3.69630872,74.309481 2.98842425,18.8131637 Z" id="Path" fill="#088673"></path>
                    <path d="M137.011576,18.8131637 L135.47744,19.4724216 L135.47744,19.4724216 L132.441181,20.7957726 C83.7000393,42.2420553 51.6933155,66.2156201 36.4210097,92.7164668 C12.8040499,133.697162 26.691097,163.13866 47.0509216,174.914938 C67.4107479,186.691214 99.8047477,184.019026 123.421714,143.038335 C138.221677,117.357099 143.112341,79.2277712 138.093709,28.6503511 L137.759913,25.4050996 C137.528411,23.2303283 137.278965,21.0330162 137.011576,18.8131637 Z" id="petal-right" fill="#5BD7C5"></path>
                    <g id="Group-5-Copy-2" transform="translate(72.1454, 46.2486)" fill="#FFFFFF">
                        <path d="M29.1469558,21.5866499 C31.7007751,24.1467452 31.7007751,28.2974667 29.1469558,30.8575517 C26.5931568,33.4176573 22.4526223,33.4176573 19.8988132,30.8575517 C17.3449937,28.2974667 17.3449937,24.1467452 19.8988132,21.5866499 C22.4526223,19.0265548 26.5931568,19.0265548 29.1469558,21.5866499" id="Fill-1"></path>
                        <path d="M15.3498199,35.4177358 C18.8613249,38.9378545 18.8613249,44.6451044 15.3498199,48.165223 C11.8383359,51.6853628 6.14510479,51.6853628 2.63362087,48.165223 C-0.877873623,44.6451044 -0.877873623,38.9378545 2.63362087,35.4177358 C6.14510479,31.8975959 11.8383359,31.8975959 15.3498199,35.4177358" id="Fill-4"></path>
                        <path d="M56.0229599,1.20005353 C57.6190984,2.80010173 57.6190984,5.39430309 56.0229599,6.99436289 C54.4268331,8.59442267 51.8389997,8.59442267 50.2428727,6.99436289 C48.6467343,5.39430309 48.6467343,2.80010173 50.2428727,1.20005353 C51.8389997,-0.400017843 54.4268331,-0.400017843 56.0229599,1.20005353" id="Fill-9"></path>
                        <path d="M44.3395271,11.2733493 C46.2548922,13.1934094 46.2548922,16.3064484 44.3395271,18.2265185 C42.4241719,20.1465986 39.3187763,20.1465986 37.403421,18.2265185 C35.4880559,16.3064484 35.4880559,13.1934094 37.403421,11.2733493 C39.3187763,9.35326926 42.4241719,9.35326926 44.3395271,11.2733493" id="Fill-10"></path>
                    </g>
                </g>
            </g>
        </g>
    </g>
</svg>